<svg xmlns="http://www.w3.org/2000/svg" viewBox="0 0 72 88">
  <g fill="#001737">
    <path d="M35.88,0C16.1,0,0,16.1,0,35.88c0,7.69,2.44,14.83,6.58,20.67,1.73-2.41,3.44-4.84,5.1-7.28.87-1.28,1.73-2.58,2.59-3.89-1.28-2.91-2-6.12-2-9.5,0-13.02,10.59-23.62,23.62-23.62s23.62,10.59,23.62,23.62-10.59,23.62-23.62,23.62c-1.09,0-2.16-.08-3.21-.22-.66,1-1.31,1.97-1.96,2.92-1.81,2.66-3.67,5.31-5.55,7.93,3.39,1.06,6.99,1.64,10.72,1.64,19.78,0,35.88-16.1,35.88-35.88S55.67,0,35.88,0Z"/>
    <path d="M35.88,44.44c1.99,3.27,4.05,6.48,6.13,9.67,4.09-1.38,7.57-4.09,9.91-7.63-3.7-5.69-7.25-11.53-10.61-17.43-1.11-1.95-3.18-3.15-5.43-3.15s-4.31,1.2-5.43,3.15c-4.5,7.91-9.36,15.7-14.43,23.17-3.93,5.78-8.07,11.49-12.33,17.01,3,2.89,6.37,5.39,10.06,7.4,4.35-5.64,8.59-11.48,12.6-17.39,3.27-4.82,6.46-9.77,9.52-14.8Z"/>
    <path d="M54.26,71.68c1.24,1.66,2.49,3.31,3.74,4.95,3.69-2.01,7.07-4.51,10.06-7.4-1.25-1.62-2.49-3.26-3.72-4.91-2.95,2.95-6.35,5.43-10.09,7.36Z"/>
  </g>
</svg>
